<svg width="692" height="340" viewBox="0 0 692 340" fill="none" xmlns="http://www.w3.org/2000/svg">
<g clip-path="url(#clip0_1_19)">
<path d="M344.942 34.4721C350.689 33.5317 356.437 31.7592 362.148 31.9039C369.377 32.0486 376.823 32.8806 383.727 34.9786C397.716 39.1745 405.053 49.99 405.523 64.6398C405.921 76.9022 402.704 88.0794 396.378 98.5332C390.414 108.408 388.318 119.405 388.281 130.763C388.245 141.144 387.92 151.453 384.775 161.401C383.221 166.32 380.835 171.058 378.161 175.472C375.052 180.68 369.955 182.453 364.75 181.042C360.268 179.848 357.051 175.435 356.762 169.539C356.545 164.982 356.907 160.424 356.69 155.902C356.22 144.725 354.123 133.873 349.099 123.745C347.472 120.49 345.593 117.343 341.436 117.198C337.062 117.053 334.279 119.513 332.255 123.239C327.267 132.427 325.568 142.446 324.917 152.719C324.556 158.905 324.7 165.126 324.267 171.348C323.978 175.906 321.7 179.559 317.182 180.897C312.23 182.344 307.748 181.223 304.314 177.027C300.302 172.107 297.338 166.573 296.29 160.388C294.699 151.128 293.109 141.723 293 132.39C292.856 118.898 290.036 106.6 282.952 95.0245C276.084 83.8472 274.277 71.404 276.265 58.4543C278.253 45.4685 288.843 35.9552 302.434 32.9529C319.206 29.2633 332.58 35.6658 345.268 45.2515C347.762 47.1324 350.147 49.0857 352.461 51.1837C354.304 52.8115 356.22 54.0051 358.208 51.8348C360.413 49.4836 358.822 47.5665 356.943 45.9387C353.906 43.3343 350.798 40.8385 347.762 38.2702C346.786 37.4383 345.81 36.5701 344.834 35.7382L344.906 34.6168L344.942 34.4721ZM321.483 105.948C324.014 105.768 325.243 104.248 325.423 101.644C326.074 92.203 329.038 84.7154 339.954 83.2323C341.183 83.0515 342.882 80.8088 342.918 79.4704C342.954 78.2044 341.183 76.7937 340.026 75.6361C339.556 75.1659 338.581 75.2383 337.785 75.0936C332.833 74.1893 329.11 71.6934 327.664 66.6654C326.797 63.5908 326.002 60.48 325.496 57.2968C325.098 54.8371 323.978 53.2817 321.52 53.2817C319.062 53.2817 317.797 54.8009 317.471 57.2606C317.11 59.7927 316.748 62.3248 316.062 64.7845C314.363 70.8614 310.82 75.0212 304.169 75.6723C301.856 75.8894 299.796 76.6128 299.76 79.2172C299.76 81.9663 301.675 83.2685 304.278 83.594C309.194 84.1728 312.989 86.6687 314.869 91.1179C316.242 94.4095 316.821 98.0991 317.471 101.68C317.905 104.031 318.772 105.659 321.447 105.948H321.483Z" fill="#153A5E"/>
<path d="M561.674 290.029C557.264 297.227 553.324 303.63 549.457 310.068C547.035 314.047 544.613 318.026 542.445 322.15C541.179 324.501 539.987 327.503 542.481 329.457C544.902 331.338 547.577 329.565 549.276 327.72C554.806 321.68 560.084 315.422 565.433 309.236C570.711 303.123 575.663 296.721 581.338 290.969C584.772 287.497 589.434 289.269 590.736 294.08C591.242 295.925 590.989 298.023 590.916 299.976C590.916 300.808 590.483 301.64 590.049 303.268C592.977 299.976 595.326 297.263 597.784 294.623C598.905 293.429 600.17 292.308 601.543 291.331C605.447 288.582 609.279 288.365 612.351 290.608C615.315 292.742 617.086 297.951 615.279 301.785C612.604 307.5 609.243 312.854 606.242 318.424C604.833 321.065 603.351 323.669 602.411 326.491C601.543 329.131 603.351 330.867 605.845 329.71C608.303 328.625 610.652 326.925 612.568 325.008C620.918 316.76 627.352 307.066 633.099 296.866C633.497 296.178 633.858 295.491 634.256 294.84C637.436 289.523 640.003 288.546 646.943 290.246C646.22 291.657 645.642 293.031 644.883 294.297C639.569 303.123 634.183 311.949 628.87 320.775C628.147 322.005 627.388 323.38 627.243 324.754C627.063 326.274 627.063 328.48 627.93 329.24C628.834 329.999 631.075 329.71 632.484 329.24C634.003 328.733 635.485 327.648 636.533 326.418C641.702 320.233 646.943 314.047 651.786 307.609C658.437 298.71 666.389 291.801 677.486 289.342C682.474 288.22 685.149 290.463 685.258 295.636C685.366 301.315 683.089 306.017 679.041 309.851C676.655 312.094 673.366 312.275 671.884 310.502C670.366 308.694 670.98 305.583 673.546 303.521C675.426 302.002 677.595 300.844 679.583 299.398C680.559 298.71 681.824 297.951 682.149 296.974C682.655 295.527 683.017 293.393 682.294 292.38C681.607 291.44 679.077 290.969 677.956 291.512C675.281 292.742 672.607 294.333 670.582 296.431C665.016 302.219 660.353 308.73 657.425 316.29C656.485 318.714 656.088 321.463 656.088 324.067C656.088 328.661 658.726 330.976 663.209 330.035C665.956 329.493 668.703 328.191 671.052 326.635C677.956 322.005 683.342 315.82 688.366 309.273C689.198 308.187 690.174 307.211 691.113 306.162L691.873 306.632C691.511 307.428 691.33 308.404 690.752 309.019C684.679 315.313 678.607 321.607 672.462 327.793C671.558 328.697 670.293 329.348 669.1 329.927C659.196 335.1 649.726 329.927 648.606 318.786C648.533 318.135 648.497 317.52 648.425 316.507C644.955 320.233 641.738 323.669 638.521 327.106C638.232 327.431 637.834 327.648 637.509 327.937C633.894 331.012 629.954 333.544 625.147 330.976C620.52 328.516 620.014 324.139 620.882 320.341C619.074 321.824 616.797 323.741 614.484 325.659C612.423 327.323 610.435 329.059 608.303 330.65C603.061 334.593 596.519 329.818 596.049 324.393C595.688 320.558 596.555 317.158 598.652 313.975C601.652 309.417 604.507 304.823 607.435 300.23C607.869 299.578 608.375 298.963 608.664 298.24C609.496 296.214 611.917 294.08 609.64 291.946C607.327 289.776 604.76 291.44 602.664 292.887C596.194 297.3 591.784 303.63 587.519 309.96C583.434 316.037 579.675 322.331 575.952 328.625C574.687 330.795 573.386 331.989 570.675 331.374C568.94 330.976 567.06 331.301 564.241 331.301C566.156 328.154 567.638 325.767 569.084 323.38C573.928 315.277 578.808 307.211 583.615 299.108C584.338 297.878 585.025 296.54 585.314 295.129C585.531 293.972 585.133 292.706 585.025 291.476C583.832 291.874 582.205 291.874 581.518 292.67C576.675 298.276 572.084 304.136 567.277 309.779C561.855 316.181 556.541 322.765 550.65 328.697C546.782 332.604 542.191 332.857 539.083 330.795C535.288 328.299 534.095 324.212 535.794 317.845C533.625 320.305 532.034 322.331 530.227 324.067C527.841 326.346 525.492 328.842 522.709 330.506C517.034 333.906 511.25 330.687 510.889 324.031C510.744 321.571 511.359 319.039 511.648 316.543C507.997 319.98 504.383 323.452 500.587 326.78C499.105 328.082 497.37 329.203 495.599 330.035C489.093 333.038 484.141 332.423 479.912 328.299C475.502 323.995 474.02 317.701 476.839 311.732C482.442 299.868 491.948 292.489 504.563 289.269C509.515 288.003 512.696 290.752 512.516 295.853C512.335 301.17 510.13 305.764 506.407 309.49C505.576 310.322 504.383 311.154 503.298 311.262C501.889 311.407 499.901 311.262 499.105 310.358C498.31 309.49 498.057 307.066 498.708 306.162C500.19 304.1 502.395 302.508 504.31 300.736C506.045 299.144 508.431 297.878 509.479 295.889C511.178 292.706 509.046 290.246 505.539 291.15C503.768 291.584 501.925 292.489 500.551 293.682C493.358 299.976 487.792 307.536 484.285 316.471C483.816 317.701 483.418 319.003 483.237 320.305C482.767 323.416 482.225 326.744 485.225 328.878C488.045 330.94 491.117 330.144 494.045 328.697C501.997 324.754 508.25 318.677 513.238 311.588C520.034 301.857 526.179 291.693 532.36 281.601C537.456 273.281 542.228 264.745 547.071 256.244C548.119 254.399 549.24 253.495 551.589 253.857C553.578 254.182 555.674 253.748 558.313 253.604C556.505 256.787 554.951 259.68 553.288 262.502C542.842 280.045 532.287 297.553 521.914 315.133C520.07 318.279 518.588 321.644 517.323 325.08C516.889 326.31 517.215 328.842 517.974 329.204C519.13 329.782 521.516 329.565 522.42 328.697C527.299 323.886 532.36 319.148 536.444 313.722C541.541 306.921 545.842 299.47 550.36 292.235C551.481 290.427 552.602 289.45 554.879 289.848C556.867 290.174 558.927 289.92 561.927 289.92L561.674 290.029Z" fill="#153A5E"/>
<path d="M263.722 257.402C268.927 258.921 270.228 261.996 267.228 265.649C265.023 268.326 261.011 269.085 258.951 267.277C256.963 265.504 256.854 261.127 258.77 258.704C261.698 254.978 267.047 253.423 271.71 254.942C276.807 256.57 279.843 260.621 280.313 266.083C280.964 274.258 278.253 281.456 273.771 288.003C266.975 297.951 258.589 306.27 247.637 311.624C236.215 317.194 224.142 316.29 215.973 307.681C211.888 303.377 209.756 298.168 209.467 292.091C208.563 274.511 216.985 261.453 229.383 250.384C241.781 239.316 256.276 232.334 272.795 230.128C287.651 228.138 302.145 228.97 314.399 239.207C317.074 241.45 319.315 244.271 321.339 246.405C328.062 242.354 334.351 237.977 341.147 234.649C349.063 230.743 357.629 229.404 366.341 232.045C373.859 234.324 378.45 239.786 379.498 247.31C380.221 252.338 379.245 257.619 378.92 262.791C378.883 263.623 378.124 264.383 377.727 265.179L376.823 264.889C377.076 263.334 377.365 261.778 377.582 260.223C378.377 254.58 378.739 248.937 376.172 243.584C373.208 237.326 368.148 233.926 361.389 233.166C352.569 232.19 344.364 234.288 336.918 238.918C332.797 241.486 329.11 244.741 325.243 247.707C323.724 248.901 323.544 250.276 324.375 252.12C335.906 276.862 327.737 304.353 306.338 320.341C294.555 329.131 281.434 333.942 266.758 333.689C259.023 333.544 251.324 332.242 243.589 332.061C238.89 331.953 234.154 333.255 229.419 333.327C220.563 333.472 211.708 333.219 202.852 333.074C202.093 333.074 201.189 332.929 200.611 332.531C199.418 331.699 198.406 330.65 197.322 329.71C198.334 328.625 199.093 327.033 200.322 326.563C207.912 323.488 215.756 323.995 223.6 325.333C227.973 326.093 232.456 326.491 236.649 327.865C245.324 330.723 252.408 327.069 259.637 323.344C269.325 318.352 275.072 309.49 281.108 301.025C287.217 292.453 292.458 283.265 298.675 274.728C304.459 266.77 310.893 259.246 317.254 251.723C318.845 249.842 319.134 248.612 317.652 246.586C310.856 237.398 301.639 232.732 290.47 231.792C265.71 229.73 246.806 240.69 231.263 258.885C225.154 266.047 220.419 274.077 217.419 282.975C216.334 286.195 215.503 289.631 215.214 293.031C214.129 306.487 223.961 314.12 236.649 312.6C243.191 311.805 248.974 308.983 254.143 304.968C262.638 298.385 270.59 291.15 274.891 281.094C276.843 276.573 277.927 271.256 277.855 266.336C277.747 258.704 270.337 254.472 263.758 257.402H263.722ZM250.348 329.493L250.529 330.397C275.759 334.557 295.061 330.65 311.362 306.958C322.64 290.572 328.785 272.992 320.869 252.952C318.411 255.376 316.098 257.763 314.507 260.585C308.254 271.798 302.362 283.265 296.073 294.442C289.892 305.402 282.229 315.096 270.879 321.209C267.192 323.199 263.65 325.478 259.818 327.069C256.854 328.299 253.529 328.697 250.348 329.457V329.493ZM200.43 329.348C204.225 331.989 228.913 332.459 233.865 330.433C222.696 329.71 211.635 327.033 200.43 329.348Z" fill="#153A5E"/>
<path d="M49.7009 339.006C50.9298 337.198 52.1588 335.389 53.3878 333.617C67.7739 312.817 78.437 290.427 82.5215 265.287C83.3529 260.115 83.3167 254.58 82.5215 249.371C80.4251 236.06 71.6416 230.236 58.3398 232.696C48.4358 234.505 40.0499 239.533 32.423 245.682C21.2539 254.689 12.868 265.902 7.95213 279.503C5.09659 287.388 3.83148 295.455 6.28941 303.666C8.27745 310.322 13.9885 314.373 20.9286 314.879C27.5072 315.35 33.6882 313.83 38.8932 309.996C52.4118 300.049 62.4966 287.497 65.8582 270.568C66.4727 267.421 65.7859 263.659 64.6654 260.585C62.7135 255.159 54.5083 253.965 50.5322 258.378C51.0021 258.523 51.3997 258.776 51.7612 258.776C54.5083 258.704 56.3518 259.68 56.3518 262.719C56.3518 265.613 53.5324 268.253 50.4599 268.362C47.2429 268.506 45.1103 267.096 45.3272 264.166C45.5079 261.815 46.4116 259.102 47.9297 257.329C50.9298 253.712 55.2312 252.844 59.7495 253.965C64.1593 255.05 66.7618 258.125 67.8101 262.43C69.7258 270.17 67.2317 277.296 63.8701 283.916C58.2675 294.948 50.6045 304.425 40.3029 311.443C33.1098 316.362 25.23 318.46 16.5911 316.181C8.13287 313.939 3.28929 308.007 1.15667 299.832C-1.69887 288.835 1.08438 278.526 6.54244 269.121C15.3982 253.929 27.6518 241.992 43.8091 234.613C53.4239 230.236 63.581 228.102 73.8465 231.973C84.9072 236.132 90.4014 244.922 91.7749 256.389C93.7268 272.847 88.5218 287.642 79.8829 301.206C73.4489 311.298 65.9305 320.667 58.882 330.361C58.4844 330.904 58.0868 331.41 58.1229 332.495C59.7495 331.229 61.3761 329.963 62.9665 328.625C64.5931 327.286 66.3281 326.02 67.7378 324.501C76.6297 314.915 85.5578 305.33 94.3413 295.599C110.896 277.224 126.331 257.727 146.825 243.367C158.537 235.192 170.79 227.994 184.562 223.942C190.345 222.242 196.526 221.844 202.527 220.904C203.286 220.795 204.225 220.687 204.804 221.049C206.033 221.736 207.045 222.749 208.165 223.617C206.973 224.304 205.78 225.462 204.515 225.534C199.888 225.823 195.189 225.317 190.671 225.968C177.441 227.849 165.983 234.179 154.669 240.907C138.548 250.457 126.15 264.021 113.679 277.658C99.0765 293.646 84.5096 309.634 69.5451 325.225C64.6654 330.289 58.5567 334.159 52.954 338.536C52.2311 339.115 51.2552 339.368 50.3877 339.766L49.6647 339.006H49.7009Z" fill="#153A5E"/>
<path d="M389.872 301.532C393.739 298.24 397.535 294.804 401.511 291.657C405.306 288.618 409.138 288.329 412.246 290.463C415.246 292.489 417.018 297.119 415.68 301.206C414.451 304.86 412.644 308.332 410.764 311.732C408.487 315.892 405.668 319.799 403.499 324.031C402.74 325.514 403.246 327.684 403.174 329.529C405.125 329.167 407.62 329.421 408.921 328.299C412.752 324.971 416.62 321.463 419.548 317.375C425.187 309.562 430.175 301.279 435.416 293.176C435.705 292.742 435.741 292.163 435.994 291.404L430.572 290.535V289.45C431.91 289.269 433.319 288.871 434.693 288.944C437.079 289.052 438.705 288.112 439.826 286.014C441.344 283.192 443.079 280.443 444.597 277.622C445.681 275.56 447.019 274.366 449.585 274.837C451.392 275.162 453.308 274.909 455.694 274.909C453.127 279.394 450.706 283.663 447.922 288.51L456.055 289.306V290.572C454.429 290.716 452.73 291.114 451.067 290.933C447.453 290.535 445.465 292.091 443.766 295.238C439.067 303.811 434.006 312.166 429.163 320.631C428.331 322.078 427.536 323.633 427.283 325.225C427.066 326.491 427.175 328.48 427.97 329.095C428.946 329.855 431.259 330.144 432.127 329.493C435.705 326.78 439.247 323.886 442.284 320.558C445.501 317.05 448.067 312.962 450.923 309.164C451.754 308.079 452.621 306.994 453.489 305.945L454.248 306.379C454.067 306.994 454.067 307.753 453.706 308.224C448.718 314.445 443.693 320.631 438.561 326.78C437.585 327.937 436.211 328.806 434.982 329.746C431.801 332.133 428.404 333.11 424.789 330.904C421.247 328.733 420.343 325.297 420.632 321.39C420.668 320.739 420.777 320.088 420.741 320.377C418.174 322.62 415.138 325.297 412.138 327.974C407.294 332.314 403.354 333.146 399.595 330.614C395.872 328.082 394.426 322.656 397.101 317.375C400.21 311.262 404.15 305.583 407.692 299.687C408.487 298.349 409.391 297.01 409.861 295.563C410.222 294.514 410.403 292.778 409.861 292.199C409.102 291.44 407.222 290.897 406.318 291.295C403.752 292.489 400.788 293.682 399.089 295.78C393.017 303.268 387.305 311.009 381.667 318.822C379.281 322.15 377.618 325.984 375.269 329.348C374.51 330.433 372.739 331.121 371.329 331.374C369.341 331.699 367.244 331.446 364.461 331.446C365.329 329.746 365.762 328.661 366.377 327.684C371.907 318.569 377.51 309.49 382.968 300.374C384.052 298.566 384.811 296.576 385.426 294.587C385.679 293.682 385.173 292.561 385.028 291.548C384.016 291.765 382.643 291.621 382.028 292.235C378.956 295.419 376.028 298.747 373.1 302.074C366.16 309.96 359.473 318.135 352.171 325.659C348.051 329.891 342.629 332.712 336.267 331.88C329.942 331.048 325.821 326.346 325.279 319.98C324.773 313.903 326.941 308.694 330.99 304.498C338.472 296.757 347.509 291.476 358.172 289.306C361.931 288.546 365.401 290.101 366.774 292.85C368.04 295.382 366.991 298.964 364.172 301.496C358.822 306.27 351.991 307.645 345.412 309.634C345.087 309.743 344.761 309.815 344.436 309.815C336.701 309.815 333.809 314.843 332.074 321.354C330.556 326.997 333.845 330.831 339.701 330.035C345.412 329.276 350.003 326.201 353.653 322.186C361.1 313.975 368.112 305.366 375.341 296.974C377.076 294.948 378.811 292.814 380.98 291.367C382.643 290.246 385.173 289.269 386.908 289.74C389.691 290.463 391.245 293.14 391.318 296.178C391.354 298.349 390.92 300.519 390.667 302.689L389.8 301.64L389.872 301.532ZM339.629 308.296C347.436 306.56 354.666 303.557 360.196 297.517C361.569 296.034 363.883 293.755 361.786 291.874C360.738 290.897 357.485 291.367 355.786 292.235C348.882 295.817 344.075 301.785 339.629 308.26V308.296Z" fill="#153A5E"/>
<path d="M154.091 331.374C156.115 328.01 157.705 325.405 159.26 322.729C164.248 314.192 169.272 305.692 174.08 297.083C174.947 295.563 174.694 293.393 174.947 291.548C173.176 292.38 170.826 292.706 169.742 294.08C164.067 301.025 158.862 308.368 153.187 315.313C149.356 320.016 145.235 324.537 140.897 328.806C138.042 331.627 134.319 333.436 130.343 330.976C126.439 328.552 125.319 324.718 126.15 320.233C126.222 319.943 126.078 319.618 125.933 318.569C124.162 320.667 122.824 322.475 121.27 324.103C119.21 326.237 117.222 328.589 114.764 330.252C109.523 333.834 103.631 331.844 101.101 325.984C98.715 320.522 99.4018 315.096 102.293 310.322C109.197 299.036 119.68 292.525 132.331 289.486C136.813 288.401 137.97 289.233 140.066 293.14C142.958 289.812 145.741 289.125 151.705 290.463C151.055 291.801 150.512 293.031 149.826 294.225C144.368 303.774 138.837 313.252 133.524 322.837C132.403 324.899 130.921 327.757 133.343 329.529C135.765 331.338 138.042 329.131 139.669 327.395C144.584 322.15 149.428 316.833 154.055 311.298C158.537 305.945 162.621 300.266 166.995 294.84C168.369 293.14 170.104 291.621 171.911 290.427C176.104 287.678 180.839 289.884 180.947 294.948C181.02 298.819 180.008 302.762 179.393 307.102C180.441 305.836 181.706 304.751 182.466 303.377C184.996 298.638 187.815 294.116 192.297 290.969C194.249 289.595 196.816 287.605 198.767 290.137C200.683 292.561 198.334 294.804 196.49 296.287C193.129 299 189.586 301.459 186.008 303.883C182.899 306.017 181.273 311.081 182.899 314.445C184.092 316.869 186.478 317.628 188.502 316.543C191.466 314.988 194.105 312.745 196.671 310.539C198.189 309.236 199.346 307.5 200.683 305.945L201.515 306.523C201.189 307.247 201.045 308.115 200.539 308.658C197.828 311.443 195.225 314.301 192.225 316.76C189.55 318.931 186.116 319.437 183.152 317.701C180.369 316.073 180.333 312.926 180.694 309.924C180.731 309.526 180.694 309.092 180.008 308.224C178.092 310.539 175.959 312.745 174.26 315.205C171.188 319.69 168.332 324.32 165.513 328.986C164.356 330.94 163.055 331.88 160.669 331.482C158.862 331.193 156.983 331.41 154.091 331.41V331.374ZM105.583 324.863C106.631 326.78 107.101 329.059 108.258 329.493C109.703 330.035 111.728 329.203 113.463 328.769C114.149 328.589 114.8 327.974 115.342 327.431C123.728 319.256 130.704 310.032 136.162 299.651C137.5 297.119 139.162 293.827 136.596 291.693C133.994 289.523 130.885 291.621 128.427 293.357C120.836 298.819 114.981 305.872 110.318 313.866C108.366 317.23 107.173 321.065 105.583 324.79V324.863Z" fill="#153A5E"/>
<path d="M413.873 55.6691C410.909 55.7414 409.21 53.5711 408.596 50.1347C408.017 46.6622 407.367 43.1535 406.101 39.898C404.186 35.0509 399.776 33.2785 395.041 32.4827C392.258 32.0124 390.848 30.457 390.776 27.8164C390.703 25.0312 392.583 23.6205 395.041 23.0779C403.86 21.0522 407.258 17.2903 408.27 8.31961C408.415 7.12593 408.523 5.89607 408.668 4.66622C409.029 1.91713 410.511 0.0361703 413.367 -0.0723464C416.222 -0.144691 417.74 1.66392 418.21 4.41301C418.644 6.90889 419.006 9.44095 419.548 11.9368C421.03 18.484 424.897 21.9927 431.512 22.897C434.079 23.2587 435.994 24.4163 436.247 27.1653C436.5 29.6612 435.271 31.4337 432.85 32.2295C421.644 35.8467 419.15 38.849 418.174 50.5326C417.921 53.6072 416.62 55.235 413.837 55.5967L413.873 55.6691ZM413.801 32.1571C416.933 29.0704 416.933 26.1164 413.801 23.2949C408.957 27.5632 408.957 27.7079 413.801 32.1571Z" fill="#153A5E"/>
<path d="M290.253 27.3462C290.145 30.1676 288.374 31.6145 285.771 32.2656C280.819 33.4955 278.65 36.1361 278.217 41.3449C278.108 42.5385 278.18 44.1301 277.457 44.8174C276.084 46.1919 274.24 47.8197 272.505 47.9282C270.192 48.0729 268.602 46.0834 268.24 43.5875C267.987 41.8513 267.915 40.0427 267.445 38.3426C266.505 35.0147 264.589 32.6635 260.794 32.338C257.83 32.0848 255.987 30.2038 255.878 27.3824C255.77 24.7056 257.686 23.2587 260.252 22.7523C265.24 21.7757 267.445 18.4478 268.023 13.6369C268.638 8.68134 270.156 6.61952 273.048 6.58335C275.903 6.54718 277.855 9.26009 278.217 13.9263C278.614 18.8457 280.566 21.1969 285.482 22.4991C288.048 23.1864 290.036 24.3077 290.181 27.3824L290.253 27.3462Z" fill="#153A5E"/>
<path d="M646.509 283.012C644.16 283.012 642.714 281.999 642.605 279.539C642.497 276.211 646.473 272.268 649.907 272.232C652.293 272.232 653.666 273.281 653.702 275.741C653.738 279.394 650.124 283.012 646.473 283.012H646.509Z" fill="#153A5E"/>
<path d="M567.928 275.886C567.928 276.211 567.928 276.537 567.855 276.862C567.349 280.299 563.698 283.229 560.337 283.012C557.698 282.831 557.084 281.131 557.192 278.888C557.373 275.452 560.843 272.16 564.241 272.196C566.662 272.196 567.891 273.426 567.964 275.849L567.928 275.886Z" fill="#153A5E"/>
<path d="M321.447 73.8275C322.423 74.8765 323.218 75.6361 323.905 76.4681C326.182 79.181 325.315 83.4855 321.953 84.209C320.76 84.4622 318.881 82.5812 317.688 81.3514C317.11 80.7364 316.893 79.0363 317.327 78.3491C318.303 76.7937 319.821 75.5638 321.447 73.8275Z" fill="#153A5E"/>
</g>
<defs>
<clipPath id="clip0_1_19">
<rect width="691.692" height="339.802" fill="white"/>
</clipPath>
</defs>
</svg>
