<svg width="34" height="34" viewBox="0 0 34 34" fill="none" xmlns="http://www.w3.org/2000/svg">
<g clip-path="url(#clip0_1_209)">
<path d="M16.9864 33.9728C26.3677 33.9728 33.9728 26.3677 33.9728 16.9864C33.9728 7.60508 26.3677 0 16.9864 0C7.60508 0 0 7.60508 0 16.9864C0 26.3677 7.60508 33.9728 16.9864 33.9728Z" fill="#EEF6FD"/>
<path d="M9.18625 11.5236C9.18625 10.5995 9.34932 9.70263 9.75699 8.8601C9.97442 8.37089 10.3006 7.96322 10.7354 7.63708C11.1431 7.33812 11.5508 7.01198 11.9313 6.68584C12.3117 6.38688 12.7738 6.46842 13.0456 6.87609C14.024 8.39807 14.9752 9.92005 15.9265 11.4692C16.1982 11.9041 16.0623 12.3661 15.6003 12.5835C15.1383 12.8281 14.6763 13.0727 14.2142 13.3173C13.725 13.5619 13.5619 13.9153 13.6435 14.4588C13.725 15.0296 13.9424 15.5731 14.2686 16.0623C15.0568 17.3125 15.8449 18.5899 16.6603 19.8129C17.0679 20.438 17.5572 21.0088 18.1279 21.498C18.3181 21.6611 18.5356 21.8241 18.8074 21.8513C19.0248 21.8785 19.215 21.8513 19.3781 21.6882C19.8129 21.3077 20.2206 20.9544 20.6555 20.6011C21.0088 20.3021 21.5252 20.3565 21.7698 20.7642C22.7482 22.2862 23.7266 23.8353 24.6779 25.3845C24.9496 25.7922 24.7866 26.2814 24.3517 26.4988C23.8625 26.7434 23.3733 26.9608 22.8841 27.2054C22.3133 27.5044 21.7154 27.5587 21.0903 27.5044C19.7586 27.3685 18.6171 26.8249 17.53 26.0911C16.2254 25.1942 15.1111 24.0527 14.1327 22.8025C12.4476 20.6555 11.0344 18.3181 10.056 15.7634C9.64828 14.7306 9.3765 13.6435 9.24061 12.5292C9.21343 12.203 9.18625 11.8497 9.18625 11.5236Z" fill="#153A5E"/>
</g>
<defs>
<clipPath id="clip0_1_209">
<rect width="34" height="34" fill="white"/>
</clipPath>
</defs>
</svg>
