<svg width="21" height="27" viewBox="0 0 21 27" fill="none" xmlns="http://www.w3.org/2000/svg">
<g clip-path="url(#clip0_60_57)">
<path d="M10.8415 27H10.1585C9.90159 26.7638 9.60963 26.5553 9.39195 26.2879C7.87585 24.4283 6.3239 22.5948 4.88463 20.6786C3.32415 18.603 1.90451 16.4244 0.920244 14.0122C0.541219 13.0823 0.302195 12.0968 0 11.1375C0 10.5747 0 10.0128 0 9.45C0.0290244 9.3285 0.07 9.20869 0.0853659 9.0855C0.612927 4.79925 3.87988 1.21753 8.14732 0.251438C8.53232 0.163688 8.91902 0.0835313 9.30488 0C9.9878 0 10.6707 0 11.3537 0C11.6311 0.043875 11.9102 0.0784688 12.186 0.132469C16.5695 0.988875 19.3806 3.55472 20.6543 7.77431C20.8105 8.29238 20.8865 8.83491 21 9.36563V11.0531C20.9795 11.0886 20.9445 11.1223 20.9394 11.1603C20.72 12.7128 20.1122 14.1328 19.3874 15.5056C17.6161 18.8595 15.3505 21.8801 12.9107 24.7776C12.2602 25.5504 11.5338 26.2609 10.8415 27ZM15.7184 10.3537C15.8294 7.60894 13.312 5.1165 10.3574 5.20088C7.54463 5.28103 5.27305 7.54481 5.27049 10.4271C5.26793 13.2503 7.58732 15.5368 10.4522 15.5368C13.4759 15.5368 15.7193 13.3287 15.7176 10.3537H15.7184Z" fill="white"/>
</g>
<defs>
<clipPath id="clip0_60_57">
<rect width="21" height="27" fill="white"/>
</clipPath>
</defs>
</svg>
