<svg width="27" height="28" viewBox="0 0 27 28" fill="none" xmlns="http://www.w3.org/2000/svg">
<path d="M18.581 16.432C21.1745 19.0629 23.7674 21.6994 26.3597 24.3413C26.4115 24.3939 26.4648 24.4466 26.5214 24.5057C26.8168 24.8262 26.989 25.244 27.0068 25.6829C27.0247 26.1217 26.8868 26.5525 26.6184 26.8966C26.4131 27.1567 26.1811 27.3937 25.9264 27.6037C25.5729 27.8908 25.1263 28.0324 24.675 28.0004C24.2237 27.9684 23.8007 27.7652 23.4898 27.431C20.8414 24.7387 18.1935 22.0453 15.5462 19.3507C15.5134 19.3079 15.4862 19.2609 15.4653 19.2109C13.2922 20.5593 10.7015 21.0313 8.20332 20.534C5.70513 20.0367 3.48057 18.6062 1.96774 16.5241C-0.900579 12.5776 -0.695237 6.69743 2.9993 2.996C6.69383 -0.705434 12.3771 -0.917556 16.2269 2.07681C18.2787 3.67347 19.6223 5.75522 20.1073 8.35165C20.6474 11.2227 20.0944 13.8767 18.4258 16.3284C18.4807 16.3577 18.5327 16.3924 18.581 16.432ZM10.0116 18.4332C11.0308 18.4323 12.0398 18.2273 12.9811 17.8298C13.9224 17.4324 14.7775 16.8503 15.4976 16.1167C16.2176 15.3832 16.7886 14.5126 17.1778 13.5547C17.5671 12.5967 17.767 11.5702 17.7661 10.5337C17.7653 9.49719 17.5637 8.471 17.1729 7.51373C16.7821 6.55645 16.2097 5.68683 15.4884 4.95452C14.7671 4.22221 13.9111 3.64155 12.9692 3.24569C12.0272 2.84983 11.0179 2.64653 9.99869 2.6474C5.84821 2.63753 2.20056 6.10053 2.21512 10.5255C2.21618 11.5654 2.41872 12.595 2.81116 13.5553C3.20361 14.5156 3.77826 15.3878 4.5023 16.1222C5.22634 16.8566 6.08557 17.4386 7.03088 17.8352C7.97619 18.2317 8.98907 18.4349 10.0116 18.4332Z" fill="white"/>
</svg>
